<svg xmlns="http://www.w3.org/2000/svg" viewBox="0 0 1200 750" fill="none">
  <defs>
    <linearGradient id="background" x1="74" y1="25" x2="1100" y2="730" gradientUnits="userSpaceOnUse">
      <stop stop-color="#F5E5D2"/>
      <stop offset="1" stop-color="#E4EDE2"/>
    </linearGradient>
    <linearGradient id="dashboard" x1="280" y1="182" x2="942" y2="574" gradientUnits="userSpaceOnUse">
      <stop stop-color="#28553A"/>
      <stop offset="1" stop-color="#183829"/>
    </linearGradient>
    <filter id="shadow" x="130" y="92" width="940" height="617" color-interpolation-filters="sRGB" filterUnits="userSpaceOnUse">
      <feGaussianBlur stdDeviation="23"/>
    </filter>
  </defs>
  <rect width="1200" height="750" rx="38" fill="url(#background)"/>
  <circle cx="1038" cy="144" r="102" fill="#D87842" fill-opacity=".16"/>
  <circle cx="154" cy="584" r="118" fill="#1D4935" fill-opacity=".09"/>
  <path d="M935 114c47-56 115-46 127 1-44-17-83 12-93 45-17-6-28-21-34-46Z" fill="#527B55" fill-opacity=".5"/>
  <ellipse cx="601" cy="630" rx="391" ry="33" fill="#3A4938" fill-opacity=".18" filter="url(#shadow)"/>
  <rect x="170" y="98" width="860" height="502" rx="27" fill="#1B3A2C"/>
  <rect x="184" y="112" width="832" height="474" rx="17" fill="#F8F7F1"/>
  <path d="M201 112h798a17 17 0 0 1 17 17v42H184v-42a17 17 0 0 1 17-17Z" fill="#fff"/>
  <circle cx="211" cy="138" r="6" fill="#D87842"/>
  <circle cx="232" cy="138" r="6" fill="#E8C08D"/>
  <circle cx="253" cy="138" r="6" fill="#7C9D86"/>
  <rect x="286" y="129" width="327" height="17" rx="8" fill="#F0F1EA"/>
  <rect x="184" y="171" width="177" height="415" fill="url(#dashboard)"/>
  <circle cx="218" cy="205" r="11" fill="#E6B17F"/>
  <rect x="240" y="199" width="91" height="11" rx="5" fill="#fff" fill-opacity=".9"/>
  <rect x="208" y="245" width="117" height="29" rx="9" fill="#fff" fill-opacity=".14"/>
  <rect x="222" y="256" width="82" height="8" rx="4" fill="#E6B17F"/>
  <rect x="208" y="294" width="98" height="8" rx="4" fill="#fff" fill-opacity=".5"/>
  <rect x="208" y="327" width="113" height="8" rx="4" fill="#fff" fill-opacity=".5"/>
  <rect x="208" y="360" width="84" height="8" rx="4" fill="#fff" fill-opacity=".5"/>
  <rect x="208" y="393" width="109" height="8" rx="4" fill="#fff" fill-opacity=".5"/>
  <text x="393" y="216" fill="#18382B" font-family="Arial,sans-serif" font-size="27" font-weight="700">Le Poulailler</text>
  <text x="393" y="246" fill="#708075" font-family="Arial,sans-serif" font-size="14">Maquette illustrative de gestion d’élevage</text>
  <rect x="393" y="275" width="178" height="100" rx="16" fill="#FFF" stroke="#E6E7DE"/>
  <circle cx="424" cy="307" r="15" fill="#F5E9DE"/>
  <path d="M417 311c0-9 12-14 17-6 5 8-3 16-10 14-4-1-7-4-7-8Z" fill="#D87842"/>
  <text x="449" y="306" fill="#788378" font-family="Arial,sans-serif" font-size="12">Poussins</text>
  <text x="414" y="350" fill="#214E3A" font-family="Arial,sans-serif" font-size="22" font-weight="700">Suivi des lots</text>
  <rect x="587" y="275" width="178" height="100" rx="16" fill="#FFF" stroke="#E6E7DE"/>
  <circle cx="619" cy="307" r="15" fill="#E8EEE5"/>
  <path d="M611 307h16M619 299v16" stroke="#28553A" stroke-width="3" stroke-linecap="round"/>
  <text x="644" y="306" fill="#788378" font-family="Arial,sans-serif" font-size="12">Produits</text>
  <text x="608" y="350" fill="#214E3A" font-family="Arial,sans-serif" font-size="22" font-weight="700">Stock &amp; ventes</text>
  <rect x="779" y="275" width="178" height="100" rx="16" fill="#FFF" stroke="#E6E7DE"/>
  <circle cx="811" cy="307" r="15" fill="#F5E9DE"/>
  <path d="M805 312v-7l6-5 6 5v7M811 300v12" stroke="#B85E32" stroke-width="2.5" stroke-linecap="round" stroke-linejoin="round"/>
  <text x="836" y="306" fill="#788378" font-family="Arial,sans-serif" font-size="12">Économie</text>
  <text x="800" y="350" fill="#214E3A" font-family="Arial,sans-serif" font-size="22" font-weight="700">Charges &amp; recettes</text>
  <rect x="393" y="397" width="564" height="160" rx="16" fill="#FFF" stroke="#E6E7DE"/>
  <text x="418" y="428" fill="#244936" font-family="Arial,sans-serif" font-size="15" font-weight="700">Aperçu de l’activité</text>
  <text x="418" y="450" fill="#89948A" font-family="Arial,sans-serif" font-size="11">Vue de démonstration — données non réelles</text>
  <path d="M422 529h506" stroke="#E5E8E0" stroke-width="2"/>
  <path d="M422 500h506M422 471h506" stroke="#EFF0EA"/>
  <path d="m430 515 84-20 82 10 86-39 79 17 80-25 80 4" stroke="#D87842" stroke-width="5" stroke-linecap="round" stroke-linejoin="round"/>
  <circle cx="596" cy="505" r="5" fill="#D87842"/>
  <circle cx="682" cy="466" r="5" fill="#D87842"/>
  <circle cx="841" cy="458" r="5" fill="#D87842"/>
  <path d="M117 600h966l-55 61H172l-55-61Z" fill="#D6D8D0"/>
  <path d="M409 600h382l-29 31H438l-29-31Z" fill="#B7BCB3"/>
  <rect x="479" y="638" width="242" height="7" rx="3.5" fill="#A2A89F"/>
  <rect x="857" y="94" width="226" height="44" rx="22" fill="#fff" fill-opacity=".9"/>
  <text x="881" y="122" fill="#1D4935" font-family="Arial,sans-serif" font-size="13" font-weight="700" letter-spacing="1">PROJET NUMÉRIQUE</text>
</svg>
